<svg id="Layer_2" data-name="Layer 2" xmlns="http://www.w3.org/2000/svg" viewBox="0 0 150.65 85.82">
    <rect width="100%" height="100%" fill="#fff" />
    <title>logo</title>
    <path
        d="M44.38,98.11l.36.76a5,5,0,0,0,1.47-.67c.44-.42.58-1.13,1-1.57,3.79-4,5.19-5.54,9.16-9.38,6.1-5.9,10.18-9.25,16.26-15.16C80,64.94,87.31,57.75,94.29,50.25a40.81,40.81,0,0,0,8.83-14c2.62-7.34.08-13.6-6.45-17.18a47.09,47.09,0,0,0-23.19-6,93.24,93.24,0,0,0-27,3.64,117.14,117.14,0,0,0-16,6.39c-2.9,1.38-5.39,3.67-8,5.64-.92.7-1.25,1.75-.09,2.57a7.52,7.52,0,0,0,2.31,1,35.72,35.72,0,0,0,18.42.13,43.39,43.39,0,0,1-19.8-2.27,46.34,46.34,0,0,1,4.51-3.95,46.91,46.91,0,0,1,5.64-3A73.77,73.77,0,0,1,56,16c5.29-.7,10.62-1.21,16-1.51a44.35,44.35,0,0,1,14.1,1.83,40.19,40.19,0,0,1,11.68,5.42,10.67,10.67,0,0,1,4.44,6.38c1,3.57,0,7-1.57,10-2,3.74-4.68,7.11-7,10.66-1.71,2.59-4.13,3.43-7.16,4.15-6.73,1.6-13.26,4-19.86,6.17-.23.07-.58.56-.52.69a1.34,1.34,0,0,0,.78.72c1.32.21,2.66.32,4.34.5l-1-1.27c2.06-.8,4.09-1.65,6.16-2.4s4.25-1.51,6.41-2.16,4.09-1.06,6.14-1.58l.29.59L47.56,94Z"
        transform="translate(-21.69 -13.05)" />
    <path
        d="M94.89,60a8.82,8.82,0,0,0,2.88-.14c2.75-1.11,5.44-2.38,8.1-3.7a2,2,0,0,0,.77-1.44c.4-6.28,3.66-11.34,7-16.32,2-2.94,4.23-5.71,6.42-8.51a8.49,8.49,0,0,1,2-1.75,1.6,1.6,0,0,1,1.39-.17,1.54,1.54,0,0,1,.48,1.35c-.8,2.65-1.58,5.31-2.62,7.87-1.45,3.58-2.77,7.3-4.84,10.52-1.81,2.82-4.5,5.09-6.93,7.47-1.48,1.45-1.69,4.73-.06,6a1.88,1.88,0,0,0,1.71,0c2.53-1.54,5.27-2.78,6.32-6,.9-2.78,1.39-3,3.49-3.39.56,1.81-.61,3-1.41,4.4a10.61,10.61,0,0,0-.66,1.79c.62.19,1.28.62,1.84.52,2.78-.51,5.55-1.07,8.27-1.79.91-.25,1.69-1,2.68-1.36,1.68-2.25,3.53-4.34,6.4-5.19.51-.15,1.53-.1,1.63.14a3.08,3.08,0,0,1,.1,2.11,14,14,0,0,1-1.67,2.46l-.59-.13c.16-.84.31-1.68.45-2.46-2,.45-5,3.56-5.06,5.5,0,1.06.41,1.81,1.8,1.67,4-.4,7-2.67,9.86-5.22.7-.62,1.34-1.31,2-2l.63.32c-.27.68-.36,1.55-.85,2-1.45,1.42-2.59,3.29-1.53,4.93s3.19,1.76,5.15,1.35c.95-.19,1.89-.35,3-.56-1.55-2.28.3-3.31,1.7-4.36A22.79,22.79,0,0,1,159,53.4a2.78,2.78,0,0,1,2.31,0c.39.28.13,1.45.17,2.23.21-.15.56-.44.94-.68,2.54-1.6,3.3-1.28,3.88,1.66.33,1.63,1.93,2.46,3.9,2,.65-.16,1.29-.39,2.19-.66-1,2.48-2.87,2.55-4.71,2.28-2.26-.33-3-2-3.21-4.4a37.63,37.63,0,0,0-4.69,2.88c-3,2.54-6.68,3-10.35,3.45a11,11,0,0,1-3.6-.24c-2.43-.55-3.1-2.28-2.73-4.28-2.14.94-4.36,2.07-6.68,2.91-3.09,1.12-4.23.43-5-2.57-4.68.22-9.07,3.62-14.15,1.11-1.3,1-2.74,2.15-4.3,3.14-2.68,1.69-4.88.7-5.77-2.52a21.75,21.75,0,0,1-.41-2.2c-3,1.33-5.9,2.7-8.88,3.94a2.61,2.61,0,0,1-2.12,0c-1.86-1.32-3.47-.52-5.19.23a15.87,15.87,0,0,1-2.59.67l-.35-.71a10.82,10.82,0,0,1,1.94-1.18c1.88-.7,3.68-1.16,3.21-4-.3-1.8,4.15-6.68,6-7.08a1.65,1.65,0,0,1,2,2,7.8,7.8,0,0,1-2.89,5.27l-3.07,2.65Zm13.55-5.76c8.71-5.7,11-15,13.79-24C116,37.21,110.19,44.56,108.44,54.21ZM99.16,51c-3,1.7-4.76,4.21-4.76,6.73C96.61,56,99,54.42,99.16,51Zm60.32,3.75L154,58.24A4.71,4.71,0,0,0,159.48,54.72Z"
        transform="translate(-21.69 -13.05)" />
    <path d="M129.27,39.17l.89,1.07c-.41.78-1,.71-1.43.21-.19-.23.09-.85.15-1.29Z"
        transform="translate(-21.69 -13.05)" />
    <path d="M157,44.92c-.82-.47-2-.6-1.58-2.27l1.9,2Z" transform="translate(-21.69 -13.05)" />
    <path fill="#fff"
        d="M99.27,50.39c-.19,3.45-2.64,5-4.88,6.65C94.43,54.51,96.21,52,99.27,50.39Z"
        transform="translate(-21.69 -13.05)" />
    <path fill="#231f20"
        d="M90,71.79l.3-.16a.92.92,0,0,0,.87.53c.4,0,.71-.22.71-.58s-.21-.52-.64-.71L91,70.74c-.49-.22-.75-.45-.75-.93a.82.82,0,0,1,.89-.81,1,1,0,0,1,.93.51l-.29.18a.7.7,0,0,0-.64-.37.48.48,0,0,0-.54.48c0,.3.16.44.54.61l.28.13c.56.25.85.53.85,1a.93.93,0,0,1-1.05.9A1.23,1.23,0,0,1,90,71.79Z"
        transform="translate(-21.69 -13.05)" />
    <path fill="#231f20" d="M99.51,69h.36v3.4h-.36Z" transform="translate(-21.69 -13.05)" />
    <path fill="#231f20"
        d="M107.86,70.07a2.12,2.12,0,0,1-.23-.31s0,.25,0,.38v2.3h-.34V69h.06l2,2.4c.09.11.22.3.24.32s0-.24,0-.39V69H110v3.43h-.06Z"
        transform="translate(-21.69 -13.05)" />
    <path fill="#231f20"
        d="M117.19,70.74A1.69,1.69,0,0,1,118.94,69a1.58,1.58,0,0,1,1.19.44l-.25.24a1.23,1.23,0,0,0-.94-.36,1.42,1.42,0,0,0,0,2.83,1.57,1.57,0,0,0,1-.31v-.71h-1v-.32h1.36V72a1.94,1.94,0,0,1-1.35.47A1.7,1.7,0,0,1,117.19,70.74Z"
        transform="translate(-21.69 -13.05)" />
    <path fill="#231f20"
        d="M128.66,69h.05l1.45,3.44h-.38l-.31-.77H127.9l-.3.77h-.36Zm.68,2.36-.52-1.3a2.67,2.67,0,0,1-.13-.4s-.07.24-.14.4l-.52,1.3Z"
        transform="translate(-21.69 -13.05)" />
    <path fill="#231f20"
        d="M137.3,69h1c.72,0,1.21.35,1.21,1s-.48,1.06-1.21,1.06h-.64v1.29h-.36Zm1,1.79c.57,0,.86-.25.86-.74s-.29-.73-.86-.73h-.61v1.47Z"
        transform="translate(-21.69 -13.05)" />
    <path fill="#231f20"
        d="M146.51,70.74a1.75,1.75,0,1,1,1.75,1.74A1.7,1.7,0,0,1,146.51,70.74Zm3.13,0a1.38,1.38,0,1,0-1.38,1.41A1.36,1.36,0,0,0,149.64,70.74Z"
        transform="translate(-21.69 -13.05)" />
    <path fill="#231f20"
        d="M157.24,69h1c.72,0,1.22.33,1.22,1a1,1,0,0,1-.72,1l.83,1.4h-.42l-.79-1.34h-.78v1.34h-.36Zm1,1.75c.55,0,.85-.23.85-.71s-.3-.72-.85-.72h-.65v1.43Z"
        transform="translate(-21.69 -13.05)" />
    <path fill="#231f20" d="M166.78,69h2.07v.32h-1.71v1.21h1.53v.32h-1.53v1.23h1.78v.32h-2.14Z"
        transform="translate(-21.69 -13.05)" />
    <path
        d="M151,32.23h.11l2.59,6.19h-.68L152.5,37h-2.81l-.55,1.38h-.63Zm1.24,4.25-.95-2.34a5.38,5.38,0,0,1-.23-.73s-.13.44-.25.72l-.93,2.35Z"
        transform="translate(-21.69 -13.05)" />
    <path
        d="M153.84,33.88h1.38c1.09,0,1.78.51,1.78,1.45a1.29,1.29,0,0,1-1,1.32l1.14,1.77h-.73l-1-1.68h-.85v1.67h-.64Zm1.35,2.35c.8,0,1.16-.3,1.16-.9s-.37-.9-1.16-.9h-.71v1.8Z"
        transform="translate(-21.69 -13.05)" />
    <path d="M158.59,34.44h-1.4v-.56h3.45v.56h-1.41v4h-.64Z" transform="translate(-21.69 -13.05)" />
    <path
        d="M161.09,32.3h2c1.19,0,1.76.68,1.76,1.55a1.24,1.24,0,0,1-.89,1.31,1.42,1.42,0,0,1,1.19,1.54,1.65,1.65,0,0,1-1.89,1.72h-2.19Zm2.06,2.62a.94.94,0,0,0,1.07-1c0-.59-.32-1-1.16-1h-1.32v2.05Zm.08,2.92c.93,0,1.29-.48,1.29-1.18s-.43-1.18-1.33-1.18h-1.45v2.36Z"
        transform="translate(-21.69 -13.05)" />
    <path
        d="M166.77,36.74l-1.57-2.86h.72l.87,1.63a4.44,4.44,0,0,1,.31.78,5.48,5.48,0,0,1,.31-.78l.86-1.63H169l-1.54,2.85v1.69h-.64Z"
        transform="translate(-21.69 -13.05)" />
</svg>
